<?xml version="1.0" encoding="UTF-8" standalone="no"?>
<!-- Created with Inkscape (http://www.inkscape.org/) -->

<svg
   xmlns:dc="http://purl.org/dc/elements/1.1/"
   xmlns:cc="http://creativecommons.org/ns#"
   xmlns:rdf="http://www.w3.org/1999/02/22-rdf-syntax-ns#"
   xmlns:svg="http://www.w3.org/2000/svg"
   xmlns="http://www.w3.org/2000/svg"
   xmlns:sodipodi="http://sodipodi.sourceforge.net/DTD/sodipodi-0.dtd"
   xmlns:inkscape="http://www.inkscape.org/namespaces/inkscape"
   width="49.671337mm"
   height="49.67128mm"
   viewBox="0 0 176.0008 176.0006"
   id="svg5564"
   version="1.1"
   inkscape:version="0.91 r13725"
   sodipodi:docname="agdesign_small_logo.svg">
  <defs
     id="defs5566" />
  <sodipodi:namedview
     id="base"
     pagecolor="#ffffff"
     bordercolor="#666666"
     borderopacity="1.0"
     inkscape:pageopacity="0.0"
     inkscape:pageshadow="2"
     inkscape:zoom="1.4"
     inkscape:cx="73.000445"
     inkscape:cy="65.14317"
     inkscape:document-units="px"
     inkscape:current-layer="layer1"
     showgrid="false"
     fit-margin-top="0"
     fit-margin-left="0"
     fit-margin-right="0"
     fit-margin-bottom="0"
     inkscape:window-width="1504"
     inkscape:window-height="940"
     inkscape:window-x="-8"
     inkscape:window-y="-8"
     inkscape:window-maximized="1" />
  <metadata
     id="metadata5569">
    <rdf:RDF>
      <cc:Work
         rdf:about="">
        <dc:format>image/svg+xml</dc:format>
        <dc:type
           rdf:resource="http://purl.org/dc/dcmitype/StillImage" />
        <dc:title></dc:title>
      </cc:Work>
    </rdf:RDF>
  </metadata>
  <g
     inkscape:label="Layer 1"
     inkscape:groupmode="layer"
     id="layer1"
     transform="translate(185.1433,-250.0762)">
    <path
       inkscape:connector-curvature="0"
       style="opacity:1;fill:#333333;fill-opacity:1;stroke:none;stroke-width:30.68300056;stroke-miterlimit:4;stroke-dasharray:none;stroke-dashoffset:0;stroke-opacity:1"
       d="m -122.1433,250.0762 c -34.6993,0 -63,28.3009 -63,63 a 8.0008372,8.0008372 0 0 0 0,0.012 c 0.013,8.9546 1.8867,17.4362 4.6074,24.6054 2.7207,7.1693 5.9883,12.9696 10.5977,17.086 l -0.2989,-0.2813 52.1954,51.6524 c 0.8542,0.902 1.7326,1.7809 2.6386,2.6308 a 8.0008372,8.0008372 0 0 0 0.1114,0.1035 l 6.1972,5.5957 a 8.0008372,8.0008372 0 0 0 0.022,0.02 c 7.9588,7.1342 21.4328,11.5515 36.916,11.5761 a 8.0008372,8.0008372 0 0 0 0.014,0 c 34.6992,0 63,-28.3006 63,-63 l 0,-50 c 0,-34.6992 -28.3008,-63 -63,-63 l -50,0 z m 0,8 50,0 c 30.3757,0 55,24.6244 55,55 l 0,50 c 0,30.3758 -24.6243,55 -55,55 -13.5189,-0.022 -26.5565,-5.0214 -31.5899,-9.5332 l -6.1972,-5.5957 c -0.8543,-0.8014 -1.683,-1.63 -2.4844,-2.4843 l -52.1953,-51.6504 c -5.8322,-5.2083 -12.5112,-20.0976 -12.5332,-35.7364 0,-30.3757 24.6243,-55 55,-55 z"
       id="path5408" />
    <path
       style="opacity:1;fill:#333333;fill-opacity:1;stroke:none;stroke-width:2;stroke-miterlimit:4;stroke-dasharray:none;stroke-dashoffset:0;stroke-opacity:1"
       d="m -122.14258,273.07617 c -0.0262,0 -0.052,0.002 -0.0781,0.002 a 40,40 0 0 0 -3.90039,0.19727 c -0.007,7e-4 -0.0144,-7e-4 -0.0215,0 a 40,40 0 0 0 -21.73437,9.17773 c -0.0311,0.0262 -0.0608,0.0538 -0.0918,0.0801 a 40,40 0 0 0 -2.81641,2.625 c -0.0408,0.0419 -0.0805,0.0849 -0.12109,0.12696 a 40,40 0 0 0 -2.53125,2.88086 c -0.0272,0.0341 -0.053,0.0693 -0.0801,0.10351 a 40,40 0 0 0 -2.26758,3.17188 40,40 0 0 0 -0.0293,0.0449 40,40 0 0 0 -4.8711,10.88867 40,40 0 0 0 -0.85937,3.83398 c -0.007,0.0404 -0.0146,0.0806 -0.0215,0.1211 a 40,40 0 0 0 -0.45117,3.70312 c -0.0113,0.15034 -0.0236,0.30036 -0.0332,0.45118 a 40,40 0 0 0 -0.0918,2.58593 40,40 0 0 0 0,0.004 l 0,0.002 a 40,40 0 0 0 9.40625,25.76758 40,40 0 0 0 2.69336,2.89063 c 0.0274,0.0267 0.0546,0.0535 0.082,0.0801 a 40,40 0 0 0 2.91406,2.56055 c 0.0294,0.0235 0.0603,0.045 0.0898,0.0684 a 40,40 0 0 0 3.18555,2.2793 40,40 0 0 0 0.0332,0.0215 40,40 0 0 0 14.74414,5.73633 c 0.0314,0.005 0.0624,0.0122 0.0937,0.0176 a 40,40 0 0 0 3.7168,0.45117 c 0.14919,0.0112 0.29762,0.0236 0.44726,0.0332 a 40,40 0 0 0 2.59375,0.0918 40,40 0 0 0 3.73438,-0.19141 c 0.18228,-0.0169 0.36336,-0.0373 0.54492,-0.0566 a 40,40 0 0 0 19.041014,-7.31836 c -3.884494,-3.19998 -7.175594,-7.09164 -9.707034,-11.47461 -0.001,7.9e-4 -0.003,10e-4 -0.004,0.002 a 25,25 0 0 1 -0.21875,0.14062 c -0.64565,0.41093 -1.31211,0.79302 -1.9961,1.14453 a 25,25 0 0 1 -0.10937,0.0566 c -0.72359,0.36736 -1.46663,0.69923 -2.22852,0.9961 -0.7729,0.30115 -1.5632,0.56487 -2.37109,0.78906 -0.79248,0.21991 -1.59998,0.40136 -2.42188,0.54297 a 25,25 0 0 1 -0.0156,0.004 c -0.004,6.8e-4 -0.008,10e-4 -0.0117,0.002 -0.78923,0.13507 -1.5918,0.23193 -2.4043,0.29101 a 25,25 0 0 1 -0.14257,0.01 c -0.55926,0.0375 -1.12082,0.0644 -1.68946,0.0644 -5.21903,0 -10.06521,-1.60692 -14.07617,-4.34765 a 25,25 0 0 1 -0.11719,-0.082 c -0.62919,-0.43522 -1.23862,-0.89711 -1.82422,-1.38671 a 25,25 0 0 1 -0.23242,-0.20118 c -0.54511,-0.46719 -1.07125,-0.95503 -1.57422,-1.46679 a 25,25 0 0 1 -0.25586,-0.26758 c -0.48385,-0.507 -0.94837,-1.03393 -1.38867,-1.58008 a 25,25 0 0 1 -0.23633,-0.30078 c -0.44289,-0.56681 -0.86227,-1.15146 -1.25586,-1.75586 a 25,25 0 0 1 -0.14062,-0.2207 c -0.41152,-0.64662 -0.79261,-1.31298 -1.14453,-1.99805 a 25,25 0 0 1 -0.0566,-0.10937 c -0.36468,-0.71863 -0.69702,-1.4565 -0.99219,-2.2129 a 25,25 0 0 1 -0.01,-0.0293 c -0.29285,-0.75324 -0.54969,-1.52408 -0.76953,-2.31055 a 25,25 0 0 1 -0.0234,-0.084 c -0.21069,-0.76413 -0.38545,-1.54254 -0.52344,-2.33399 a 25,25 0 0 1 -0.0215,-0.11719 c -0.1284,-0.75789 -0.22087,-1.5273 -0.27929,-2.30664 a 25,25 0 0 1 -0.0195,-0.25781 c -0.0349,-0.53979 -0.0586,-1.08233 -0.0586,-1.63086 l 0,-0.002 a 25,25 0 0 1 0,-0.002 25,25 0 0 1 0,-0.004 c 2.6e-4,-0.84099 0.0434,-1.67243 0.125,-2.49219 0.33774,-3.39372 1.35449,-6.58925 2.91406,-9.44726 a 25,25 0 0 1 0.082,-0.14258 c 0.36939,-0.66645 0.76661,-1.31395 1.19336,-1.94141 a 25,25 0 0 1 0.18554,-0.26367 c 0.40222,-0.57535 0.82546,-1.13524 1.27344,-1.67383 a 25,25 0 0 1 0.33008,-0.38281 c 0.42064,-0.48555 0.85814,-0.95643 1.31445,-1.4082 a 25,25 0 0 1 0.43359,-0.41602 c 0.4508,-0.42552 0.91508,-0.83513 1.39649,-1.22656 a 25,25 0 0 1 0.47851,-0.37695 c 0.50854,-0.39345 1.03176,-0.769 1.57032,-1.12305 a 25,25 0 0 1 0.40234,-0.25781 c 0.58636,-0.36965 1.18884,-0.71424 1.80664,-1.03516 a 25,25 0 0 1 0.29883,-0.15234 c 0.65103,-0.32714 1.31808,-0.62611 2,-0.89649 a 25,25 0 0 1 0.24805,-0.0976 c 0.69092,-0.2654 1.39645,-0.49894 2.11523,-0.70313 a 25,25 0 0 1 0.26172,-0.0742 c 0.70487,-0.19191 1.42231,-0.35414 2.15039,-0.48437 a 25,25 0 0 1 0.30078,-0.0527 c 0.69543,-0.11559 1.39981,-0.19904 2.11328,-0.25586 a 25,25 0 0 1 0.50977,-0.0391 c 0.36017,-0.0213 0.7238,-0.0332 1.08789,-0.0391 a 25,25 0 0 1 0.4082,-0.0137 l 0,0.002 a 25,25 0 0 1 0.0801,0.004 c 0.79425,0.003 1.57823,0.0421 2.35352,0.11719 a 25,25 0 0 1 0.084,0.008 c 0.82855,0.0831 1.64641,0.20697 2.44922,0.36915 1.65083,0.33348 3.24381,0.82894 4.75976,1.4707 a 25,25 0 0 1 0.01,0.004 c 0.005,0.002 0.0102,0.006 0.0156,0.008 0.74746,0.31743 1.47535,0.66863 2.18359,1.05469 a 25,25 0 0 1 0.17187,0.0996 c 0.51384,0.28543 1.01421,0.59141 1.50586,0.91016 2.53215,-4.38421 5.82501,-8.27606 9.710941,-11.47656 a 40,40 0 0 0 -1.505861,-1.07617 c -0.11894,-0.0776 -0.23565,-0.15803 -0.35547,-0.23438 A 40,40 0 0 0 -104,277.42773 40,40 0 0 0 -107.4707,275.875 c -0.10381,-0.041 -0.20632,-0.0849 -0.31055,-0.125 a 40,40 0 0 0 -7.23047,-2.01758 c -0.2114,-0.038 -0.42222,-0.0766 -0.63476,-0.11133 a 40,40 0 0 0 -6.4961,-0.54492 z m 24.994142,8.78321 c -3.930732,3.15183 -7.249912,7.02861 -9.759762,11.43164 0.23654,0.1818 0.48348,0.35063 0.71289,0.54101 a 25,25 0 0 1 0.40625,0.35156 c 0.48408,0.41951 0.95379,0.85363 1.40429,1.3086 a 25,25 0 0 1 0.41211,0.43359 c 0.4323,0.45782 0.85094,0.92858 1.24805,1.41797 a 25,25 0 0 1 0.3457,0.44141 c 0.4003,0.51642 0.78101,1.04826 1.14063,1.5957 a 25,25 0 0 1 0.24609,0.38281 c 0.37873,0.60002 0.7329,1.21666 1.060549,1.84961 a 25,25 0 0 1 0.121094,0.24024 c 0.339041,0.67263 0.64743,1.36271 0.925781,2.06836 a 25,25 0 0 1 0.07031,0.17578 c 0.275036,0.71313 0.516814,1.4427 0.726562,2.18554 a 25,25 0 0 1 0.05469,0.18946 c 0.199029,0.72697 0.364702,1.46705 0.498047,2.21875 a 25,25 0 0 1 0.04102,0.23632 c 0.121087,0.72311 0.210108,1.45661 0.267579,2.19922 a 25,25 0 0 1 0.02734,0.3711 c 0.0325,0.51989 0.05648,1.04234 0.05664,1.57031 a 25,25 0 0 1 0,0.006 25,25 0 0 1 0,0.002 c 0,0.82643 -0.04448,1.64325 -0.123047,2.44922 a 25,25 0 0 1 -0.0039,0.0605 c -0.08305,0.83124 -0.208471,1.64973 -0.371094,2.45508 -0.502942,2.49069 -1.37421,4.8483 -2.558591,7.01171 a 25,25 0 0 1 -0.004,0.008 c -0.003,0.006 -0.007,0.0117 -0.01,0.0176 -0.38649,0.70404 -0.80757,1.38607 -1.25781,2.04688 a 25,25 0 0 1 -0.13477,0.19141 c -0.42062,0.60511 -0.86487,1.19122 -1.33594,1.75586 a 25,25 0 0 1 -0.24609,0.2832 c -0.45453,0.52861 -0.92925,1.04044 -1.42578,1.5293 a 25,25 0 0 1 -0.28906,0.27734 c -0.50501,0.48161 -1.02846,0.94244 -1.57227,1.38086 a 25,25 0 0 1 -0.29297,0.23047 c -0.0437,0.0342 -0.0909,0.0638 -0.13476,0.0976 2.50406,4.38997 5.81122,8.2583 9.728508,11.4043 a 40,40 0 0 0 0.03125,-0.0234 l 0,0.0469 c 3.99e-4,3.2e-4 0.0016,-3.2e-4 0.002,0 3.928295,-3.14933 7.241637,-7.02762 9.751953,-11.42578 -5.926864,-4.57359 -9.751953,-11.74038 -9.751953,-19.79688 0,-8.04319 3.812533,-15.20079 9.722656,-19.77539 a 40,40 0 0 0 -1.535156,-2.52344 c -0.111503,-0.1657 -0.222032,-0.33216 -0.335937,-0.49609 a 40,40 0 0 0 -2.240235,-2.94531 c -0.03003,-0.0357 -0.06165,-0.0699 -0.0918,-0.10547 a 40,40 0 0 0 -2.40625,-2.58203 c -0.148539,-0.14694 -0.296449,-0.29485 -0.447265,-0.43946 a 40,40 0 0 0 -2.673829,-2.3496 z m 10.636719,13.16015 c -5.305807,4.22585 -8.707031,10.73771 -8.707031,18.05664 0,9.1724 5.335154,17.0845 13.076172,20.80664 l 0,-20.80664 a 40,40 0 0 0 -4.369141,-18.05664 z m 0.751953,39.00977 c -2.543359,4.40033 -5.861658,8.2911 -9.767578,11.49804 3.976645,2.86948 8.496525,5.03458 13.384766,6.29102 l 0,-15.83398 c -1.263949,-0.55334 -2.472387,-1.20896 -3.617188,-1.95508 z m -11.382812,12.78906 0,6.25781 12.185547,0 c -4.42566,-1.41803 -8.533444,-3.54673 -12.185547,-6.25781 z"
       id="path5410"
       inkscape:connector-curvature="0" />
    <path
       style="opacity:1;fill:#333333;fill-opacity:1;stroke:none;stroke-width:30.68300056;stroke-miterlimit:4;stroke-dasharray:none;stroke-dashoffset:0;stroke-opacity:1"
       d="m -72.142578,273.07617 a 40,40 0 0 0 -23.322266,7.58789 c 3.879825,3.19826 7.167926,7.0801 9.697266,11.45899 a 25,25 0 0 1 0.04687,-0.0273 c 0.681269,-0.44221 1.384618,-0.85104 2.109375,-1.22656 a 25,25 0 0 1 0.0078,-0.004 c 0.736516,-0.38128 1.494616,-0.72531 2.271485,-1.0332 0.770764,-0.30547 1.559219,-0.57397 2.365234,-0.80273 0.786281,-0.22316 1.588656,-0.40872 2.404297,-0.55469 a 25,25 0 0 1 0.0625,-0.0117 c 0.765097,-0.13491 1.540848,-0.23338 2.328125,-0.29687 a 25,25 0 0 1 0.287109,-0.0215 c 0.574614,-0.0397 1.153701,-0.0682 1.738282,-0.0684 a 25,25 0 0 1 0.0039,0 25,25 0 0 1 0.002,0 c 0.842316,0 1.673119,0.0434 2.494141,0.125 3.403993,0.33822 6.608048,1.36066 9.472656,2.92774 a 25,25 0 0 1 0.05859,0.0332 c 0.697596,0.38407 1.374243,0.79936 2.029296,1.24609 a 25,25 0 0 1 0.175782,0.125 c 0.601201,0.41763 1.186767,0.85874 1.748047,1.32618 a 25,25 0 0 1 0.330078,0.2871 c 0.511046,0.44089 1.006697,0.89866 1.480469,1.37891 a 25,25 0 0 1 0.333984,0.34961 c 0.454805,0.47907 0.89054,0.97443 1.30664,1.48828 a 25,25 0 0 1 0.316407,0.40234 c 0.41051,0.5286 0.800139,1.07365 1.167969,1.63477 a 25,25 0 0 1 0.224609,0.34766 c 0.388983,0.61534 0.752683,1.24844 1.087891,1.89843 a 25,25 0 0 1 0.08789,0.17383 c 0.348173,0.68829 0.664679,1.39427 0.949219,2.11719 a 25,25 0 0 1 0.05859,0.15039 c 0.278244,0.72065 0.522823,1.45799 0.734375,2.20899 a 25,25 0 0 1 0.04883,0.16796 c 0.200804,0.73264 0.367869,1.47858 0.501953,2.23633 a 25,25 0 0 1 0.03906,0.22266 c 0.121706,0.72622 0.210038,1.46308 0.267579,2.20898 a 25,25 0 0 1 0.02734,0.36328 c 0.03274,0.52311 0.05664,1.0488 0.05664,1.58008 0,0.82511 -0.04474,1.64059 -0.123047,2.44531 a 25,25 0 0 1 -0.0039,0.0684 c -0.0831,0.83057 -0.208561,1.64842 -0.371094,2.45313 -0.502149,2.48617 -1.371586,4.83987 -2.552734,7 a 25,25 0 0 1 -0.03906,0.0664 c -0.379058,0.68817 -0.788456,1.35711 -1.228516,2.0039 a 25,25 0 0 1 -0.167968,0.23633 c -0.40639,0.5827 -0.833836,1.14828 -1.28711,1.69336 a 25,25 0 0 1 -0.308593,0.35742 c -0.43711,0.50602 -0.891445,0.99738 -1.367188,1.4668 a 25,25 0 0 1 -0.349609,0.33398 c -0.479024,0.45486 -0.974479,0.89049 -1.488282,1.30664 a 25,25 0 0 1 -0.402343,0.31641 c -0.528534,0.41056 -1.073693,0.80009 -1.634766,1.16797 a 25,25 0 0 1 -0.347656,0.22461 c -0.615292,0.38903 -1.248485,0.75263 -1.898438,1.08789 a 25,25 0 0 1 -0.173828,0.0879 c -0.694338,0.3513 -1.407138,0.67051 -2.136719,0.95703 a 25,25 0 0 1 -0.111328,0.0449 c -0.73809,0.28575 -1.491768,0.53625 -2.261718,0.75195 A 25,25 0 0 1 -65.5,337.17578 c -0.750936,0.20686 -1.515611,0.37894 -2.292969,0.51563 a 25,25 0 0 1 -0.18164,0.0312 c -0.738588,0.12422 -1.489094,0.21562 -2.248047,0.27343 a 25,25 0 0 1 -0.326172,0.0234 c -0.527099,0.0333 -1.056383,0.0566 -1.591797,0.0566 l -0.0039,0 c -5.023155,-7.7e-4 -9.699177,-1.49302 -13.619141,-4.04883 -2.531025,4.38248 -5.823294,8.26673 -9.707031,11.4668 a 40,40 0 0 0 22.195312,7.55274 c 0.377187,0.0105 0.753073,0.0293 1.132813,0.0293 a 40,40 0 0 0 25,-8.82226 l 0,18.82226 a 25,25 0 0 1 -25,25 25,25 0 0 1 -25,-25 l -14.999998,0 a 40,40 0 0 0 39.999998,40 40,40 0 0 0 40,-40 l 0,-50 a 40,40 0 0 0 -40,-40 z m -24.9375,8.82031 a 40,40 0 0 0 -9.777342,11.41016 c 5.90548,4.57488 9.714842,11.73003 9.714842,19.76953 a 25,25 0 0 1 0.0039,-0.0742 c 0.0024,-0.81689 0.04388,-1.62508 0.123047,-2.42187 0.512364,-5.15655 2.596504,-9.85137 5.763672,-13.60547 0.537568,-0.63719 1.107394,-1.24575 1.705078,-1.82617 0.597488,-0.58023 1.224135,-1.12969 1.876953,-1.64844 0.09094,-0.0723 0.181473,-0.14578 0.273438,-0.2168 -2.497216,-4.37665 -5.781271,-8.24607 -9.683594,-11.38672 z m -0.0625,31.17969 c 0,8.04735 -3.817072,15.20696 -9.732422,19.78125 a 40,40 0 0 0 9.777344,11.4082 c 3.910049,-3.14338 7.200289,-7.01523 9.701172,-11.39843 -5.218482,-4.03019 -8.801682,-10.07146 -9.580078,-16.96094 -0.08539,-0.75572 -0.13408,-1.52241 -0.150391,-2.29687 a 25,25 0 0 1 -0.01563,-0.53321 z m -10.671872,-18.08984 a 40,40 0 0 0 -3.7461,11.30469 c -0.005,0.0267 -0.009,0.0533 -0.0137,0.0801 a 40,40 0 0 0 -0.44726,3.73047 c -0.0104,0.14135 -0.0243,0.28208 -0.0332,0.42383 a 40,40 0 0 0 -0.0879,2.55078 40,40 0 0 0 4.35938,18.06445 c 5.31186,-4.22559 8.718747,-10.74072 8.718747,-18.06445 0,-7.3381 -3.420277,-13.86497 -8.749997,-18.08984 z"
       id="path5413"
       inkscape:connector-curvature="0" />
  </g>
</svg>
