<svg xmlns="http://www.w3.org/2000/svg" width="5097.791" height="3412.393" viewBox="0 0 4779.1791 3199.1186"><defs><marker orient="auto" id="f" overflow="visible"><path d="M2.308 0l-3.46 2v-4l3.46 2z" fill="#f2f2f2" fill-rule="evenodd" stroke="#f2f2f2" stroke-width=".4pt"/></marker><marker id="d" orient="auto" overflow="visible"><path d="M1.96 0a2 2 0 1 1-4.001-.001A2 2 0 0 1 1.96 0z" fill="#f2f2f2" fill-rule="evenodd" stroke="#f2f2f2" stroke-width=".4pt"/></marker><marker id="e" orient="auto" overflow="visible"><path d="M1.96 0a2 2 0 1 1-4.001-.001A2 2 0 0 1 1.96 0z" fill="#f2f2f2" fill-rule="evenodd" stroke="#f2f2f2" stroke-width=".4pt"/></marker><marker id="c" orient="auto" overflow="visible"><path d="M1.96 0a2 2 0 1 1-4.001-.001A2 2 0 0 1 1.96 0z" fill="#f2f2f2" fill-rule="evenodd" stroke="#f2f2f2" stroke-width=".4pt"/></marker><marker orient="auto" id="a" overflow="visible"><path d="M1.96 0a2 2 0 1 1-4.001-.001A2 2 0 0 1 1.96 0z" fill="#f2f2f2" fill-rule="evenodd" stroke="#f2f2f2" stroke-width=".4pt"/></marker><marker orient="auto" id="b" overflow="visible"><path d="M1.96 0a2 2 0 1 1-4.001-.001A2 2 0 0 1 1.96 0z" fill="#f2f2f2" fill-rule="evenodd" stroke="#f2f2f2" stroke-width=".4pt"/></marker></defs><g fill="none" stroke="#fff" stroke-width="15" stroke-linejoin="round"><path class="line-one" d="M9425.988 10433.799v196h1140v-520.167" marker-start="url(#a)" marker-end="url(#b)" transform="translate(-8593.436 -8503.499)"/><path d="M10630.898 9421.222v-307.46h1140v419.44" marker-start="url(#c)" marker-end="url(#d)" transform="translate(-8593.436 -8503.499)"/><path d="M12096.331 9769.282h663.842v1140h-311.961" marker-start="url(#e)" marker-end="url(#f)" transform="translate(-8593.436 -8503.499)"/></g></svg>