<?xml version="1.0" encoding="UTF-8" standalone="no"?>
<svg
   xmlns:dc="http://purl.org/dc/elements/1.1/"
   xmlns:cc="http://creativecommons.org/ns#"
   xmlns:rdf="http://www.w3.org/1999/02/22-rdf-syntax-ns#"
   xmlns:svg="http://www.w3.org/2000/svg"
   xmlns="http://www.w3.org/2000/svg"
   xmlns:sodipodi="http://sodipodi.sourceforge.net/DTD/sodipodi-0.dtd"
   xmlns:inkscape="http://www.inkscape.org/namespaces/inkscape"
   width="5097.791"
   height="3412.393"
   viewBox="0 0 4779.1791 3199.1186"
   version="1.1"
   id="svg270"
   sodipodi:docname="agdesign-hero-main.svg"
   inkscape:version="0.92.1 r15371">
  <metadata
     id="metadata276">
    <rdf:RDF>
      <cc:Work
         rdf:about="">
        <dc:format>image/svg+xml</dc:format>
        <dc:type
           rdf:resource="http://purl.org/dc/dcmitype/StillImage" />
        <dc:title />
      </cc:Work>
    </rdf:RDF>
  </metadata>
  <defs
     id="defs274">
    <inkscape:path-effect
       effect="spiro"
       id="path-effect4780"
       is_visible="true" />
  </defs>
  <sodipodi:namedview
     pagecolor="#ffffff"
     bordercolor="#666666"
     borderopacity="1"
     objecttolerance="10"
     gridtolerance="10"
     guidetolerance="10"
     inkscape:pageopacity="0"
     inkscape:pageshadow="2"
     inkscape:window-width="2202"
     inkscape:window-height="1355"
     id="namedview272"
     showgrid="false"
     inkscape:zoom="0.27663871"
     inkscape:cx="922.70239"
     inkscape:cy="1660.4487"
     inkscape:window-x="0"
     inkscape:window-y="0"
     inkscape:window-maximized="0"
     inkscape:current-layer="svg270"
     inkscape:snap-global="false" />
  <path
     d="m 2065.4721,1500.7566 c -8.4065,-3.0779 -22.3066,-3.0696 -24.2166,-7.1485 -0.518,-1.104 11.7104,-7.7889 29.3139,-16.0258 17.6035,-8.2369 30.5726,-13.3398 31.0897,-12.2369 1.912,4.079 -7.1956,14.6745 -10.0116,23.164 -3.9364,11.8564 -14.4266,16.5487 -26.1754,12.2472 z m -43.6302,-13.0507 c -4.7852,-1.7256 -7.1591,-7.1788 -5.0567,-11.6226 1.1838,-2.5031 14.4463,-9.3543 43.7612,-22.6099 37.4967,-16.953 42.4837,-18.7493 45.9312,-16.5456 2.8181,1.8015 3.7096,3.7069 3.2914,7.0228 -0.5118,4.0582 -5.0994,6.738 -42.4484,24.8012 -30.8836,14.9354 -42.8208,19.9093 -45.4755,18.953 z m -11.2828,-24.0809 c -4.7863,-1.7245 -7.1591,-7.1787 -5.0578,-11.6214 1.1838,-2.5031 14.4473,-9.3555 43.7633,-22.61 37.4946,-16.953 42.4817,-18.7493 45.9292,-16.5455 2.8181,1.8014 3.7096,3.7068 3.2914,7.0228 -0.5118,4.0581 -5.0984,6.739 -42.4484,24.8011 -30.8837,14.9354 -42.8208,19.9094 -45.4756,18.953 z m -11.2828,-24.0787 c -4.7853,-1.7255 -7.1592,-7.1787 -5.0578,-11.6236 1.1828,-2.502 14.4463,-9.3543 43.7612,-22.6078 37.4957,-16.9541 42.4827,-18.7503 45.9302,-16.5466 2.8191,1.8025 3.7096,3.7068 3.2914,7.0228 -0.5118,4.0582 -5.0984,6.739 -42.4484,24.8012 -30.8836,14.9353 -42.8187,19.9093 -45.4756,18.953 z m -9.2418,-24.2845 c -8.8964,1.4885 -16.7068,-4.4428 -31.15,-23.6567 -20.588,-27.3854 -34.51,-41.2387 -68.7444,-68.4057 -39.9195,-31.6774 -45.7169,-38.0713 -57.4627,-63.3777 -14.2445,-30.6909 -15.859,-57.3081 -5.3907,-88.9034 8.8829,-26.8094 23.041,-52.9339 86.3553,-76.6394 63.543,-23.7929 134.8851,18.3709 150.4247,83.8961 3.0001,12.6444 3.8573,28.8313 3.1655,59.6844 -1.0184,45.3332 0.6544,64.1271 8.8059,98.9334 5.4823,23.4197 5.0319,33.2044 -1.7996,39.0723 -2.3209,1.9927 -20.9813,11.4666 -41.4674,21.0518 -20.4882,9.5851 -39.7198,17.8397 -42.7366,18.3449 z"
     id="path22"
     inkscape:connector-curvature="0"
     style="fill:none;stroke:#f2f2f2;stroke-width:10.00031268;stroke-miterlimit:4;stroke-dasharray:none" />
  <path
     d="m 3148.909,2243.917 v 243.244 h 455.376 v -243.244 z m 686.388,575.401 c -5.873,-0.774 -11.937,0.146 -17.39,2.463 -5.452,2.316 -10.292,6.008 -14.11,10.537 -4.468,5.3 -7.533,11.713 -9.26,18.427 -1.724,6.713 -2.136,13.726 -1.63,20.64 0.515,7.003 1.998,14.026 5.25,20.25 3.09,5.91 7.889,11.083 14,13.75 6.372,2.781 13.92,2.622 20.25,-0.25 6.007,-2.725 10.815,-7.725 14,-13.5 3,-5.438 4.632,-11.505 6.25,-17.5 3.053,-11.3 6.18,-23.088 3.89,-34.567 -0.93,-4.663 -2.804,-9.229 -6,-12.75 -3.887,-4.282 -9.516,-6.744 -15.25,-7.5 z m -270.61,-164.572 a 186.565,186.565 0 0 1 70.71,-12.02 c 26.474,0.678 53.327,7.344 74.954,22.626 8.477,5.991 16.156,13.356 21.308,22.367 5.152,9.011 7.622,19.786 5.562,29.96 -1.756,8.667 -6.697,16.493 -13.082,22.613 -6.384,6.12 -14.164,10.627 -22.273,14.156 -34.65,15.077 -73.97,12.517 -111.723,14.142 -24.542,1.056 -49.3,3.984 -73.54,0 -14.068,-2.312 -28.092,-6.95 -42.26,-5.339 -7.082,0.806 -14.111,3.27 -19.543,7.886 -2.717,2.31 -5.006,5.138 -6.58,8.336 -1.574,3.198 -2.423,6.767 -2.327,10.33 0.132,4.91 2.065,9.69 5.075,13.571 3.01,3.881 7.055,6.89 11.473,9.035 8.836,4.291 18.899,5.143 28.707,5.678 47.252,2.58 94.76,-0.6 141.422,-8.485 42.26,-7.14 84.4,-18.35 121.622,-39.598 8.596,-4.907 16.946,-10.355 26.13,-14.048 9.185,-3.692 19.478,-5.54 29.024,-2.922 6.344,1.74 12.092,5.405 16.646,10.152 4.554,4.746 7.94,10.548 10.224,16.718 4.679,12.641 4.679,26.956 0,39.598 M 3119.21,2211.39 h 526.088 v 308.298 H 3433.77 v 113.137 h 130.958 v 48.084 h -362.04 v -48.084 h 134.089 v -113.137 h -220.396 l 2.828,-308.298 z"
     id="path32"
     inkscape:connector-curvature="0"
     style="fill:none;stroke:#f2f2f2;stroke-width:10" />
  <path
     style="fill:none;stroke:#e03d4d;stroke-width:10;stroke-opacity:1"
     d="m 3097.6,1198.65 -11.677,27.534 a 116.9,118.314 0 0 0 -13.335,-0.844 116.9,118.314 0 0 0 -13.592,0.95 l -12.645,-27.397 -24.301,6.726 3.807,29.74 a 116.9,118.314 0 0 0 -23.25,13.672 l -24.467,-17.467 -17.646,18.028 18.07,23.982 a 116.9,118.314 0 0 0 -13.39,23.463 l -29.987,-2.496 -6.272,24.322 27.582,11.47 a 116.9,118.314 0 0 0 -0.81,13.32 116.9,118.314 0 0 0 0.92,13.603 l -27.454,12.53 6.496,24.263 29.764,-3.498 a 116.9,118.314 0 0 0 13.299,23.385 l -17.791,24.29 17.728,17.946 24.178,-17.76 a 116.9,118.314 0 0 0 23.25,13.73 l -3.403,29.78 24.33,6.617 12.21,-27.424 a 116.9,118.314 0 0 0 13.374,0.852 116.9,118.314 0 0 0 13.62,-0.953 l 12.769,27.396 24.375,-6.77 -3.951,-29.73 a 116.9,118.314 0 0 0 23.172,-13.638 l 24.54,17.402 17.522,-17.896 -18.011,-24.063 A 116.9,118.314 0 0 0 3180,1390.27 l 29.949,2.685 6.308,-24.408 -27.58,-11.574 a 116.9,118.314 0 0 0 0.809,-13.32 116.9,118.314 0 0 0 -0.912,-13.54 l 27.576,-12.011 -6.42,-24.38 -29.941,3.094 a 116.9,118.314 0 0 0 -13.313,-23.427 l 17.733,-24.371 -17.603,-17.819 -24.254,17.697 a 116.9,118.314 0 0 0 -23.232,-13.722 l 2.93,-29.988 -24.451,-6.536 z"
     id="path4794" />
  <path
     style="fill:none;stroke:#f2f2f2;stroke-width:10"
     d="m 3072.588,1253.678 a 88.9,89.975 0 0 1 88.898,89.974 88.9,89.975 0 0 1 -88.898,89.977 88.9,89.975 0 0 1 -88.901,-89.977 88.9,89.975 0 0 1 88.9,-89.974 z"
     id="path40" />
  <path
     style="fill:none;stroke:#e03d4d;stroke-width:10;stroke-opacity:1"
     d="m 3355.6,1312.65 -11.677,27.534 a 116.9,118.314 0 0 0 -13.335,-0.844 116.9,118.314 0 0 0 -13.592,0.95 l -12.645,-27.397 -24.301,6.726 3.807,29.74 a 116.9,118.314 0 0 0 -23.25,13.672 l -24.467,-17.467 -17.646,18.028 18.07,23.982 a 116.9,118.314 0 0 0 -13.39,23.463 l -29.987,-2.496 -6.272,24.322 27.582,11.469 a 116.9,118.314 0 0 0 -0.81,13.32 116.9,118.314 0 0 0 0.92,13.604 l -27.454,12.53 6.496,24.262 29.764,-3.498 a 116.9,118.314 0 0 0 13.299,23.385 l -17.791,24.291 17.728,17.945 24.178,-17.76 a 116.9,118.314 0 0 0 23.25,13.731 l -3.403,29.78 24.33,6.616 12.21,-27.424 a 116.9,118.314 0 0 0 13.374,0.852 116.9,118.314 0 0 0 13.62,-0.953 l 12.769,27.396 24.375,-6.769 -3.951,-29.73 a 116.9,118.314 0 0 0 23.172,-13.639 l 24.54,17.402 17.522,-17.896 -18.011,-24.063 A 116.9,118.314 0 0 0 3438,1504.27 l 29.949,2.685 6.308,-24.407 -27.58,-11.574 a 116.9,118.314 0 0 0 0.809,-13.32 116.9,118.314 0 0 0 -0.912,-13.54 l 27.576,-12.011 -6.42,-24.38 -29.941,3.095 a 116.9,118.314 0 0 0 -13.313,-23.428 l 17.733,-24.371 -17.603,-17.819 -24.254,17.697 a 116.9,118.314 0 0 0 -23.232,-13.722 l 2.93,-29.988 -24.451,-6.536 z"
     id="path4798" />
  <path
     style="fill:none;stroke:#f2f2f2;stroke-width:10"
     d="m 3330.588,1367.678 a 88.9,89.975 0 0 1 88.898,89.975 88.9,89.975 0 0 1 -88.898,89.975 88.9,89.975 0 0 1 -88.901,-89.975 88.9,89.975 0 0 1 88.9,-89.975 z"
     id="path44" />
  <path
     style="fill:none;stroke:#e03d4d;stroke-width:10;stroke-opacity:1"
     d="m 3203.23,1553.346 -6.676,15.743 a 66.835,67.651 0 0 0 -7.623,-0.482 66.835,67.651 0 0 0 -7.771,0.543 l -7.23,-15.666 -13.894,3.847 2.177,17.005 a 66.835,67.651 0 0 0 -13.293,7.818 l -13.988,-9.988 -10.09,10.308 10.332,13.713 a 66.835,67.651 0 0 0 -7.655,13.416 l -17.145,-1.427 -3.587,13.907 15.77,6.558 a 66.835,67.651 0 0 0 -0.463,7.616 66.835,67.651 0 0 0 0.526,7.78 l -15.697,7.164 3.714,13.873 17.018,-2 a 66.835,67.651 0 0 0 7.603,13.371 l -10.172,13.89 10.136,10.261 13.823,-10.155 a 66.835,67.651 0 0 0 13.293,7.851 l -1.945,17.027 13.91,3.784 6.98,-15.68 a 66.835,67.651 0 0 0 7.648,0.486 66.835,67.651 0 0 0 7.786,-0.545 l 7.3,15.665 13.937,-3.87 -2.26,-17 a 66.835,67.651 0 0 0 13.249,-7.799 l 14.03,9.951 10.018,-10.233 -10.297,-13.759 a 66.835,67.651 0 0 0 7.648,-13.406 l 17.122,1.536 3.606,-13.957 -15.768,-6.618 a 66.835,67.651 0 0 0 0.462,-7.617 66.835,67.651 0 0 0 -0.521,-7.74 l 15.766,-6.869 -3.67,-13.94 -17.12,1.77 a 66.835,67.651 0 0 0 -7.61,-13.397 l 10.138,-13.935 -10.063,-10.189 -13.867,10.12 a 66.835,67.651 0 0 0 -13.283,-7.847 l 1.676,-17.147 -13.981,-3.737 z"
     id="path4802" />
  <path
     style="fill:none;stroke:#f2f2f2;stroke-width:10"
     d="m 3188.93,1584.81 a 50.827,51.447 0 0 1 50.826,51.447 50.827,51.447 0 0 1 -50.825,51.45 50.827,51.447 0 0 1 -50.828,-51.45 50.827,51.447 0 0 1 50.828,-51.447 z"
     id="path48" />
  <path
     style="fill:none;stroke:#e03d4d;stroke-width:10;stroke-opacity:1"
     d="m 3264.366,1114.58 -6.675,15.744 a 66.835,67.651 0 0 0 -7.623,-0.483 66.835,67.651 0 0 0 -7.771,0.543 l -7.23,-15.665 -13.894,3.846 2.177,17.005 a 66.835,67.651 0 0 0 -13.293,7.818 l -13.988,-9.988 -10.09,10.308 10.332,13.713 a 66.835,67.651 0 0 0 -7.655,13.416 l -17.145,-1.427 -3.587,13.907 15.77,6.558 a 66.835,67.651 0 0 0 -0.463,7.617 66.835,67.651 0 0 0 0.526,7.778 l -15.697,7.165 3.714,13.873 17.018,-2 a 66.835,67.651 0 0 0 7.603,13.371 l -10.173,13.89 10.137,10.26 13.823,-10.154 a 66.835,67.651 0 0 0 13.293,7.851 l -1.945,17.028 13.91,3.783 6.98,-15.68 a 66.835,67.651 0 0 0 7.648,0.486 66.835,67.651 0 0 0 7.786,-0.545 l 7.3,15.666 13.937,-3.871 -2.26,-17 a 66.835,67.651 0 0 0 13.248,-7.799 l 14.032,9.951 10.017,-10.233 -10.298,-13.759 a 66.835,67.651 0 0 0 7.648,-13.406 l 17.123,1.536 3.606,-13.957 -15.768,-6.618 a 66.835,67.651 0 0 0 0.462,-7.616 66.835,67.651 0 0 0 -0.521,-7.742 l 15.766,-6.868 -3.67,-13.94 -17.12,1.77 a 66.835,67.651 0 0 0 -7.61,-13.397 l 10.138,-13.935 -10.063,-10.189 -13.867,10.12 a 66.835,67.651 0 0 0 -13.283,-7.847 l 1.676,-17.147 z"
     id="path4806" />
  <path
     style="fill:none;stroke:#f2f2f2;stroke-width:10"
     d="m 3250.066,1146.045 a 50.827,51.447 0 0 1 50.827,51.447 50.827,51.447 0 0 1 -50.826,51.448 50.827,51.447 0 0 1 -50.828,-51.448 50.827,51.447 0 0 1 50.828,-51.447 z"
     id="path52" />
  <path
     style="fill:none;stroke:#f2f2f2;stroke-width:10"
     d="m 953.834,1633.7 h 23.899 c 15.32,17.313 37.884,42.654 20.938,66.165 -8.674,10.975 -15.812,30.648 -32.789,26.57 -8.27,1.095 -15.046,0.694 -12.048,-9.48 z"
     id="path4776" />
  <path
     style="fill:none;stroke:#f2f2f2;stroke-width:10"
     d="m 936.304,1610.133 h 39.881 c 18.936,19.476 40.446,40.431 45.596,68.163 -0.843,25.905 -21.956,45.231 -38.504,63.032 -5.87,10.27 -17.678,5.685 -27.237,6.67 -5.922,-1.446 -17.72,2.983 -19.736,-2.37 z"
     id="path4774" />
  <path
     style="fill:none;stroke:#e03d4d;stroke-width:10.00031268;stroke-opacity:1;stroke-miterlimit:4;stroke-dasharray:none"
     d="m 797.261,1568.334 v -25.868 h -65.75 c -20.957,-5.949 -13.058,-32.696 5.925,-31.257 h 103.646 c 21.779,-1.502 22.303,-24.006 0,-24.791 h -76.158 c -21.594,-8.33 -15.596,-39.561 5.925,-39.881 8.047,-1.179 19.026,3.821 23.048,-6.099 11.75,-10.19 -0.208,-32.28 -14.739,-28.392 h -96.152 c -21.46,-11.12 -20.694,-39.029 1.185,-48.504 h 302.773 c 16.899,7.88 28.881,30.537 8.352,42.06 -7.863,10.316 -21.057,5.264 -32.052,6.444 H 827.44 c -15.614,8.033 -11.55,34.84 5.925,34.49 h 231.206 c 21.95,8.247 15.777,39.601 -5.925,39.882 H 902.293 c -17.64,1.091 -22.345,20.538 -2.698,23.776 15.553,2.301 31.873,0.387 47.73,1.015 h 27.783 c 21.5,5.814 13.34,32.753 -5.925,31.257 h -148.21 v 25.868 z"
     id="path4772" />
  <path
     style="fill:none;stroke:#f2f2f2;stroke-width:10"
     d="m 704.563,1579.114 v 204.793 h 211.262 v -204.793 z"
     id="path232" />
  <path
     style="fill:none;stroke:#e03d4d;stroke-width:10.00031268;stroke-linecap:round;stroke-linejoin:miter;stroke-opacity:1;stroke-miterlimit:4;stroke-dasharray:none"
     d="m 2090.7821,1192.2073 46.129,-82.6727 -64.1014,26.3595 76.682,-178.52527 -119.8156,132.99527 -16.1751,-77.8801 -31.7511,58.1106 -57.5115,-126.40552 -1.1981,122.81102 -44.9309,-24.5622 3.5945,38.9401 -95.8525,-91.05989 26.9585,82.07369 -39.5391,-13.7788 44.8723,66.0772 -145.2989,-68.6252 128.778,126.2364 -75.8265,-7.2014 72.4376,49.5627 -171.5629,-19.4863 193.5908,73.285 -79.6391,28.3819 100.9436,6.9769"
     id="path4782"
     inkscape:connector-curvature="0" />
  <path
     style="fill:none;stroke:#e03d4d;stroke-width:10.00031268;stroke-linecap:round;stroke-linejoin:round;stroke-opacity:1;stroke-miterlimit:4;stroke-dasharray:none"
     d="m 3178.3615,2272.2553 v 30.5001 h 396.5009 v -30.5001 z"
     id="path4784"
     inkscape:connector-curvature="0"
     sodipodi:nodetypes="ccccc" />
  <path
     style="fill:none;stroke:#e03d4d;stroke-width:10.00031268;stroke-linecap:round;stroke-linejoin:round;stroke-opacity:1;stroke-miterlimit:4;stroke-dasharray:none"
     d="m 3178.3615,2320.9707 v 134.285 h 119.0349 v -134.285 z"
     id="path4786"
     inkscape:connector-curvature="0"
     sodipodi:nodetypes="ccccc" />
  <path
     sodipodi:nodetypes="ccccc"
     inkscape:connector-curvature="0"
     id="path4788"
     d="m 3317.0944,2320.9707 v 134.285 h 119.0349 v -134.285 z"
     style="fill:none;stroke:#e03d4d;stroke-width:10.00031268;stroke-linecap:round;stroke-linejoin:round;stroke-opacity:1;stroke-miterlimit:4;stroke-dasharray:none" />
  <path
     style="fill:none;stroke:#e03d4d;stroke-width:10.00031268;stroke-linecap:round;stroke-linejoin:round;stroke-opacity:1;stroke-miterlimit:4;stroke-dasharray:none"
     d="m 3455.8275,2320.9707 v 134.285 h 119.0349 v -134.285 z"
     id="path4790"
     inkscape:connector-curvature="0"
     sodipodi:nodetypes="ccccc" />
</svg>
